<svg xmlns="http://www.w3.org/2000/svg" style="display: none;">
  
    <symbol id="icon-github" viewBox="0 0 512 512">
      <path d="m475 256c0 48-14 91-41 129-28 38-64 65-109 79-5 1-8 1-11-2-2-2-3-5-3-8l0-61c0-18-5-32-15-40 11-1 20-3 29-5 9-3 18-6 27-11 9-6 17-12 23-19 6-8 11-18 15-30 4-13 6-27 6-43 0-23-8-43-23-59 7-18 7-37-2-59-5-1-13 0-23 4-10 3-19 8-26 12l-11 7c-18-5-36-7-55-7-19 0-37 2-55 7-3-2-7-5-12-8-5-3-13-6-24-11-11-4-19-5-24-4-9 22-9 41-2 59-15 16-23 36-23 59 0 16 2 30 6 42 4 13 9 23 15 30 6 8 14 14 23 20 9 5 18 8 27 11 8 2 18 4 29 5-8 7-12 17-14 29-4 2-8 4-13 5-4 1-10 1-16 1-6 0-13-2-19-6-6-4-11-10-16-18-3-6-8-11-14-15-5-4-10-6-14-7l-5-1c-4 0-7 1-9 2-1 1-2 2-1 3 0 1 1 3 2 4 2 1 3 2 4 3l2 2c4 2 8 5 13 11 4 5 7 10 9 14l2 7c3 7 7 13 13 17 6 5 12 8 19 9 7 1 14 2 20 2 6 0 12 0 16-1l6-1c0 7 0 16 1 25 0 10 0 15 0 16 0 3-2 6-4 8-2 3-6 3-11 2-45-14-81-41-109-79-27-38-41-81-41-129 0-40 9-77 29-110 20-34 46-60 80-80 33-20 70-29 110-29 40 0 77 9 110 29 34 20 60 46 80 80 20 33 29 70 29 110z"/>
    </symbol>
  
    <symbol id="icon-instagrem" viewBox="0 0 512 512">
      <path d="m389 256c0-9-1-17-3-26c0 0 90 0 90 0c0 0 0 177 0 177c0 19-6 35-20 49c-13 13-29 20-48 20c0 0-304 0-304 0c-19 0-35-7-48-20c-14-14-20-30-20-49c0 0 0-177 0-177c0 0 89 0 89 0c-1 11-2 20-2 26c0 36 13 67 39 94c26 26 57 39 94 39c36 0 67-13 94-39c26-27 39-58 39-94m19-220c19 0 35 6 48 20c14 13 20 29 20 48c0 0 0 75 0 75c0 0-111 0-111 0c-27-37-63-56-109-56c-47 0-83 19-109 56c0 0-111 0-111 0c0 0 0-75 0-75c0-19 6-35 20-48c13-14 29-20 48-20c0 0 304 0 304 0m32 85c0 0 0-37 0-37c0-8-4-12-12-12c0 0-37 0-37 0c-8 0-12 4-12 12c0 0 0 37 0 37c0 3 1 5 3 8c3 3 6 4 9 4c0 0 37 0 37 0c8 0 12-4 12-12m-102 135c0 23-8 42-24 58c-16 16-35 24-58 24c-23 0-42-8-58-24c-16-16-24-35-24-58c0-23 8-43 24-58c16-16 35-24 58-24c23 0 42 8 58 24c16 15 24 35 24 58"/>
    </symbol>
  
    <symbol id="icon-like-love-streamline" viewBox="0 0 512 512">
      <path d="m383 35c-48 0-102 27-127 88c-25-61-79-88-127-88c-62 0-129 45-129 144c0 73 42 150 126 227c62 57 122 92 125 94c1 1 3 1 5 1c2 0 4 0 5-1c3-2 63-37 125-94c84-77 126-154 126-227c0-99-67-144-129-144z m-127 443c-35-22-235-151-235-299c0-84 56-123 108-123c48 0 102 33 117 106c0 5 5 9 10 9c5 0 10-4 10-9c15-73 69-106 117-106c52 0 108 39 108 123c0 148-200 277-235 299z"/>
    </symbol>
  
</svg>
